# xmcd
#
# Track frame offsets:
# 150
# 17875
# 37430
# 52600
# 70020
# 84950
# 99095
# 114750
# 128905
# 145470
# 158330
# 173730
# 190275
# 204430
#
# Disc length: 2924 seconds
#
#
# Revision: 0
# Processed by: cddbd v1.5.1PL2 Copyright (c) Steve Scherf et al.
# Submitted via: FreeRIP 2.944 
#
DISCID=ac0b6a0e
DTITLE=Hugo e Tiago - os corações não são iguais
DYEAR=1900
DGENRE=sertanejo
TTITLE0=Fora de área
TTITLE1=os corações não são iguais
TTITLE2=não quero mais
TTITLE3=amor demais
TTITLE4=cowboy brasileiro
TTITLE5=pra falar a verdade
TTITLE6=por toda a vida
TTITLE7=me ama, me odeia
TTITLE8=igual a todo rapaz
TTITLE9=nós enrola mas não casa
TTITLE10=vou te amar
TTITLE11=tão bom
TTITLE12=aguenta coração
TTITLE13=sábado de festa
EXTD=
EXTT0=
EXTT1=
EXTT2=
EXTT3=
EXTT4=
EXTT5=
EXTT6=
EXTT7=
EXTT8=
EXTT9=
EXTT10=
EXTT11=
EXTT12=
EXTT13=
PLAYORDER=
